<svg version="1.0" xmlns="http://www.w3.org/2000/svg"
 width="1291.000000pt" height="1290.000000pt" viewBox="0 0 1291.000000 1290.000000"
 preserveAspectRatio="xMidYMid meet">
<metadata>
Created by potrace 1.16, written by Peter Selinger 2001-2019
</metadata>
<g transform="translate(0.000000,1290.000000) scale(0.100000,-0.100000)"
fill="white" stroke="none">
<path d="M6160 12080 c-52 -4 -131 -15 -175 -23 -44 -9 -120 -21 -168 -27
-158 -20 -225 -58 -277 -159 -21 -42 -93 -400 -131 -646 -15 -104 -11 -102
-120 -67 -209 66 -449 73 -779 23 -353 -53 -511 -98 -723 -203 -104 -52 -153
-94 -209 -181 l-33 -52 -3 35 c-2 19 4 71 14 116 20 98 16 164 -16 228 -34 72
-67 88 -165 83 -72 -5 -92 -11 -195 -61 -63 -30 -151 -78 -195 -106 -44 -28
-136 -79 -205 -113 -177 -87 -347 -190 -403 -245 -52 -50 -78 -93 -96 -157
-34 -126 -104 -441 -126 -570 -14 -82 -34 -193 -45 -245 -10 -52 -29 -153 -41
-225 -11 -71 -23 -133 -25 -136 -2 -4 -11 -56 -19 -115 -8 -60 -22 -132 -30
-159 -70 -241 -275 -1301 -275 -1421 0 -11 -17 -37 -38 -57 -37 -36 -40 -37
-113 -37 -41 0 -147 9 -235 20 -172 21 -258 23 -548 13 -182 -6 -189 -7 -218
-32 -47 -39 -118 -210 -118 -283 0 -16 -5 -38 -10 -48 -17 -32 -40 -263 -42
-415 -1 -121 1 -146 19 -186 26 -59 77 -115 125 -140 80 -41 277 -50 451 -20
62 11 180 22 263 26 l151 6 7 -63 c41 -378 47 -655 21 -863 -9 -66 -20 -253
-25 -415 -5 -162 -15 -335 -21 -385 -6 -51 -11 -270 -11 -505 0 -400 1 -417
21 -470 39 -100 76 -139 197 -204 60 -33 145 -85 189 -116 172 -122 405 -230
499 -230 l33 0 7 -247 c4 -153 2 -271 -4 -308 -19 -116 -11 -350 21 -589 29
-218 171 -426 354 -519 65 -32 272 -102 353 -117 61 -12 136 -11 365 6 50 4
131 2 190 -5 56 -7 239 -16 407 -20 292 -9 312 -8 460 14 175 26 191 31 307
92 45 24 107 52 137 64 41 15 70 36 120 89 l65 69 3 -182 c4 -211 17 -275 78
-365 39 -58 102 -117 155 -144 61 -31 166 -37 670 -37 275 0 586 -4 690 -9
105 -5 372 -6 595 -3 l405 6 65 32 c80 40 100 69 128 188 33 137 42 231 42
413 0 101 5 178 12 198 l11 32 89 -88 c107 -106 205 -159 398 -217 l125 -37
365 1 c201 0 424 6 495 12 72 6 198 14 280 17 161 7 250 24 345 68 30 14 62
31 70 36 8 6 62 32 120 59 112 52 133 70 234 199 101 128 166 303 166 446 0
39 5 123 10 186 37 423 46 1193 17 1333 -20 94 -67 211 -108 267 -17 23 -29
43 -27 45 2 2 114 9 248 15 330 15 413 32 563 119 112 64 133 124 123 346 -4
83 -11 170 -16 195 -5 25 -9 80 -10 123 l0 77 94 0 c177 0 326 35 494 116 105
51 120 62 217 160 123 124 150 173 214 389 49 165 47 139 37 690 -7 360 -11
433 -27 510 -29 133 -48 249 -55 349 -6 74 -13 100 -42 155 -49 95 -126 205
-201 290 -63 70 -73 77 -216 146 -167 81 -194 91 -278 101 -54 6 -58 8 -52 28
3 11 9 53 12 92 4 58 1 83 -17 135 -20 59 -21 69 -10 130 9 48 10 98 3 186 -9
112 -12 126 -44 178 -71 118 -148 138 -435 110 -104 -10 -258 -20 -342 -23
l-153 -4 6 53 c3 30 10 83 15 119 5 36 12 171 14 300 4 208 7 248 31 350 18
81 26 145 26 215 1 120 -17 314 -37 410 -9 39 -24 113 -35 165 -27 134 -112
302 -194 386 -49 50 -83 71 -185 121 -69 33 -143 67 -165 74 -82 29 -1162 9
-1440 -27 -66 -8 -162 -28 -214 -45 -95 -30 -351 -129 -406 -157 -47 -23 -113
-80 -155 -133 l-38 -48 5 102 c2 56 11 132 19 169 8 37 14 81 14 99 0 17 9 69
20 116 18 72 21 122 23 326 2 228 1 245 -19 287 -31 64 -69 96 -172 140 -134
58 -451 125 -712 150 -63 6 -160 20 -215 31 -170 33 -450 45 -665 29z m607
-279 c51 -11 162 -27 245 -36 238 -24 511 -77 618 -121 l55 -22 -1 -199 c-1
-141 -6 -220 -17 -273 -9 -41 -19 -97 -22 -125 -3 -27 -12 -81 -20 -120 -16
-83 -20 -258 -11 -520 7 -213 -2 -282 -55 -412 -16 -39 -29 -78 -29 -87 0 -8
-8 -17 -18 -20 -27 -9 -254 -26 -345 -26 -71 0 -78 2 -73 18 13 40 55 574 55
697 1 147 -23 326 -49 381 -48 98 -117 115 -372 91 -166 -16 -224 -33 -265
-78 -30 -33 -119 -241 -137 -320 -28 -124 -66 -498 -66 -650 l0 -110 -102 6
c-159 10 -319 23 -323 27 -1 1 -8 109 -14 238 -9 212 -14 250 -45 381 -19 81
-46 173 -59 205 -71 169 -87 278 -62 421 47 273 108 589 116 605 6 11 27 19
66 23 32 4 108 15 168 25 165 29 162 28 425 25 200 -3 262 -7 337 -24z m-1812
-867 c76 -8 253 -68 325 -110 73 -42 172 -142 199 -199 12 -25 35 -105 51
-178 25 -114 30 -165 39 -374 9 -232 8 -250 -14 -395 -27 -172 -29 -181 -78
-296 -59 -138 -113 -192 -193 -192 -54 0 -237 28 -271 41 -43 17 -320 24 -405
10 -40 -6 -156 -13 -258 -16 -102 -2 -245 -10 -319 -16 -140 -12 -235 -4 -330
27 -71 24 -82 33 -109 92 -23 49 -27 73 -30 175 -2 66 -1 152 3 193 l7 74 36
0 c21 0 80 9 132 20 77 16 135 20 305 20 305 1 396 21 645 138 92 44 173 114
196 169 41 96 -6 328 -90 451 -50 72 -92 92 -201 92 -114 0 -212 -21 -295 -62
-77 -39 -102 -73 -132 -175 -25 -82 -17 -77 -155 -93 -50 -5 -120 -19 -155
-30 -34 -11 -92 -23 -128 -26 -57 -6 -67 -4 -83 14 -17 19 -17 23 23 128 41
107 102 221 149 277 37 44 240 138 326 151 22 4 78 13 125 21 47 8 119 19 160
25 41 6 118 18 170 26 119 20 249 33 275 28 12 -2 48 -6 80 -10z m-1680 -114
c13 -20 6 -433 -10 -638 -20 -247 -17 -950 3 -1013 27 -81 114 -163 185 -173
202 -29 344 -41 472 -40 221 1 683 22 735 33 56 13 247 4 320 -15 30 -8 122
-23 204 -33 l150 -20 32 -38 c24 -28 34 -51 38 -88 3 -27 8 -237 12 -465 6
-448 -4 -726 -30 -765 -27 -41 -64 -48 -208 -39 l-132 9 4 55 c3 30 4 164 2
298 -2 216 -5 252 -26 335 -52 201 -89 262 -191 308 -96 43 -167 53 -339 46
-83 -4 -179 -11 -213 -17 -87 -14 -575 -16 -639 -2 -35 7 -88 8 -166 2 -128
-9 -171 -25 -224 -82 -58 -61 -66 -90 -75 -253 -4 -82 -11 -159 -14 -170 -3
-11 -14 -85 -24 -165 -13 -104 -26 -161 -44 -201 -25 -56 -27 -57 -74 -63 -94
-11 -470 -10 -602 2 -177 15 -320 58 -370 110 l-33 36 6 90 c13 167 27 259 82
536 56 280 99 469 133 595 24 85 108 463 151 675 28 141 47 215 115 455 38
134 80 212 154 283 36 34 84 75 106 90 22 14 63 45 90 68 28 22 77 60 110 82
33 23 75 54 93 68 31 25 189 113 204 114 4 0 10 -5 13 -10z m6725 -19 c71 -12
241 -93 283 -135 44 -45 112 -188 126 -266 7 -36 18 -87 26 -115 16 -57 45
-311 45 -390 0 -29 -13 -117 -30 -195 -28 -134 -30 -156 -30 -369 0 -171 -4
-238 -15 -275 -18 -60 -19 -285 -2 -334 16 -42 57 -85 104 -108 53 -26 258
-30 473 -9 91 9 205 20 254 25 132 13 130 14 121 -129 -10 -163 -7 -226 15
-291 16 -47 17 -63 8 -93 -13 -44 -44 -57 -133 -57 -34 0 -86 -4 -116 -10 -30
-5 -214 -14 -409 -20 -535 -16 -1023 -39 -1402 -65 -114 -8 -269 -15 -345 -15
-154 0 -211 13 -365 81 -47 22 -91 39 -96 39 -5 0 -13 11 -16 26 -4 14 -31 48
-61 77 -50 48 -56 57 -70 125 -8 40 -20 82 -25 92 -13 24 -13 376 0 571 l9
146 76 101 c81 108 142 157 314 250 l86 47 340 0 c335 0 341 0 383 23 64 34
102 100 102 174 0 81 -46 304 -73 358 -14 27 -45 62 -79 88 -52 40 -62 44
-159 58 -67 10 -214 18 -410 21 -341 6 -390 0 -441 -54 -53 -55 -60 -92 -59
-280 l1 -173 -28 -7 c-15 -4 -133 -8 -262 -8 l-235 0 1 180 c1 197 6 230 60
385 36 104 113 238 166 287 25 24 253 119 393 164 120 38 286 56 615 65 146 3
324 10 395 14 202 10 404 11 465 1z m-3920 -1176 c69 -4 202 -15 295 -26 151
-18 224 -20 660 -18 361 2 512 -1 572 -10 l82 -13 12 -52 c13 -59 6 -618 -9
-726 -36 -250 -43 -380 -40 -738 l3 -363 -25 -19 c-44 -33 -297 -100 -379
-100 -39 0 -151 41 -151 56 0 7 6 43 14 81 40 190 46 608 12 766 -30 135 -107
242 -212 293 -55 27 -67 29 -179 29 -118 0 -122 -1 -190 -35 -99 -49 -206
-172 -260 -297 -87 -202 -128 -418 -124 -665 2 -177 -22 -200 -231 -219 l-135
-12 -46 29 c-81 51 -79 33 -79 519 0 237 -4 509 -8 605 l-7 175 35 35 c74 74
118 251 142 561 l12 161 56 -6 c30 -3 111 -8 180 -11z m5677 -1899 c188 -80
215 -102 312 -241 69 -100 91 -148 91 -197 0 -53 23 -197 55 -348 23 -109 24
-133 24 -445 0 -181 1 -352 3 -380 6 -127 1 -172 -34 -285 -52 -168 -58 -179
-146 -267 -70 -70 -92 -85 -176 -122 -196 -86 -426 -100 -783 -46 -143 22
-408 29 -539 16 -61 -6 -255 -16 -432 -21 -177 -5 -332 -12 -345 -15 -62 -16
-245 133 -299 243 l-33 66 -6 241 c-8 356 17 881 49 1000 75 283 107 378 160
485 43 87 53 100 122 153 117 90 138 99 275 109 143 10 349 27 460 36 44 4
168 4 275 1 197 -6 253 -3 505 25 314 35 364 34 462 -8z m-3007 -181 c8 -3
107 -9 219 -15 125 -6 210 -15 219 -22 26 -22 52 -87 52 -130 0 -24 -9 -80
-20 -125 -10 -44 -24 -132 -30 -195 -23 -252 -45 -417 -66 -493 -7 -27 -16
-77 -19 -110 -4 -33 -15 -112 -25 -175 -10 -63 -24 -194 -30 -290 -13 -199
-29 -321 -60 -465 -18 -81 -21 -119 -16 -200 5 -88 9 -104 34 -140 52 -74 171
-116 422 -149 69 -9 177 -16 242 -16 110 0 360 23 403 36 11 4 106 10 210 14
105 4 280 15 390 23 110 9 269 17 353 19 l152 3 0 -55 c0 -30 7 -109 15 -175
20 -165 20 -279 -1 -296 -11 -9 -83 -15 -257 -20 -461 -15 -1753 -30 -2022
-24 -263 7 -273 8 -370 37 -55 17 -113 37 -128 45 -37 18 -77 83 -112 179
l-28 77 11 176 c24 367 25 420 7 571 -21 170 -23 366 -5 430 9 33 12 153 10
465 -4 596 3 913 23 951 36 70 82 84 267 78 80 -3 152 -7 160 -9z m-7485 -216
c33 -5 146 -14 250 -19 105 -4 251 -13 325 -19 339 -27 958 -49 1570 -57 272
-3 574 -12 671 -18 169 -11 179 -13 245 -46 47 -23 95 -59 152 -114 77 -76 84
-86 102 -151 38 -136 51 -324 63 -940 16 -822 15 -866 -14 -950 -27 -77 -46
-94 -148 -125 -60 -19 -91 -20 -590 -19 -457 1 -736 7 -1031 23 -41 3 -117 10
-168 17 -205 28 -352 -30 -404 -159 -22 -55 -23 -68 -22 -337 0 -203 5 -317
18 -415 9 -74 19 -209 23 -300 7 -198 6 -201 -78 -174 -66 22 -237 117 -311
173 -31 23 -103 68 -159 99 -62 34 -109 68 -117 83 -19 35 -9 812 12 994 9 72
16 211 16 311 0 116 8 249 21 370 25 229 22 503 -10 799 -34 310 -56 368 -151
396 -52 16 -440 -3 -590 -29 -129 -21 -267 -17 -283 10 -13 20 8 364 25 407 5
14 14 54 19 88 5 34 14 73 20 87 l12 26 236 0 c130 0 263 -5 296 -11z m6027
-398 c92 -1 99 -3 130 -29 18 -16 53 -42 78 -59 53 -37 167 -154 197 -203 45
-74 144 -394 158 -510 4 -30 20 -135 36 -233 16 -98 34 -254 39 -345 23 -388
31 -492 47 -577 9 -52 16 -149 17 -229 l1 -140 -88 -78 c-111 -97 -189 -136
-382 -189 l-150 -41 -225 -5 c-217 -4 -757 15 -1025 37 -118 10 -355 37 -567
66 -59 8 -117 14 -130 14 -13 0 -41 10 -63 21 -51 27 -185 147 -185 165 0 7
-18 48 -40 91 l-39 78 10 270 c11 266 12 271 40 326 33 67 114 157 160 181 19
10 70 27 114 38 187 49 216 51 670 51 470 0 490 2 612 60 72 35 149 113 188
194 26 51 27 62 23 162 -3 92 -8 117 -32 171 -48 105 -123 158 -267 189 -119
25 -569 26 -674 1 -38 -9 -99 -19 -135 -22 -61 -5 -181 -40 -241 -72 -50 -25
-72 -69 -77 -153 -7 -108 -37 -156 -126 -203 -38 -19 -45 -20 -160 -8 -67 7
-165 15 -220 17 l-98 4 7 142 c4 78 10 147 15 152 4 6 15 33 24 60 16 51 56
121 164 290 118 183 255 239 647 265 316 20 515 30 835 41 179 6 359 14 400
17 41 4 107 4 145 0 39 -4 114 -7 167 -7z m-3151 -2345 c46 -8 110 -17 142
-21 84 -10 280 -61 329 -86 76 -39 195 -141 232 -199 43 -66 103 -215 114
-280 6 -36 14 -231 17 -435 3 -203 11 -424 18 -490 7 -68 12 -257 12 -435 -1
-292 -2 -322 -23 -405 -12 -49 -26 -123 -31 -163 -5 -40 -15 -81 -23 -90 -47
-60 -103 -122 -112 -122 -5 0 -65 -27 -133 -60 -175 -86 -216 -93 -578 -91
-159 1 -369 8 -465 16 -124 10 -202 11 -270 5 -52 -5 -138 -10 -191 -10 -85 0
-110 4 -219 40 -68 22 -142 51 -165 64 -62 37 -123 109 -161 192 -48 103 -68
288 -60 534 4 96 8 328 9 515 2 262 6 369 20 465 9 69 24 179 32 245 15 121
28 188 70 390 31 145 37 159 87 196 53 38 177 101 243 123 135 44 425 85 730
104 207 14 287 13 376 -2z m5841 -370 c102 -16 208 -54 246 -89 13 -12 45 -33
70 -47 37 -20 53 -37 74 -80 56 -113 61 -165 54 -553 -5 -337 -15 -595 -34
-942 -8 -132 -14 -173 -36 -234 -14 -41 -26 -76 -26 -77 0 -1 -27 -35 -60 -76
-33 -40 -60 -76 -60 -80 0 -14 -303 -158 -367 -174 -38 -9 -83 -14 -111 -11
-26 3 -267 11 -537 16 -269 6 -526 15 -571 20 -89 11 -244 65 -302 105 -104
72 -215 208 -259 317 -21 52 -23 73 -25 305 l-3 249 41 85 c45 93 107 160 148
160 13 0 54 9 91 21 79 24 208 37 510 49 239 9 429 30 513 56 106 34 209 129
233 217 17 62 3 148 -48 294 -19 56 -85 113 -171 150 l-67 28 -231 -1 c-198
-1 -239 -4 -283 -20 -108 -38 -160 -111 -161 -220 0 -34 -5 -75 -11 -92 l-11
-31 -101 6 c-56 3 -163 0 -238 -6 -163 -14 -175 -11 -211 62 l-25 52 29 110
c16 61 35 120 41 132 36 66 77 114 122 141 83 50 256 91 430 102 83 6 195 14
250 20 55 5 138 10 185 10 47 0 114 5 150 10 36 5 170 11 298 14 129 2 236 7
239 10 11 11 127 6 225 -8z m-4292 -206 c52 -6 217 -15 365 -20 149 -6 277
-13 285 -15 26 -7 311 -34 430 -40 63 -4 176 -13 250 -21 74 -8 187 -19 250
-24 63 -6 126 -13 140 -16 14 -3 72 -9 129 -13 l105 -8 32 -38 c38 -45 59
-143 69 -310 3 -55 10 -142 17 -193 9 -79 8 -103 -5 -155 -9 -34 -21 -89 -27
-122 -14 -76 -37 -133 -69 -168 -40 -44 -199 -134 -296 -168 -119 -41 -157
-62 -359 -188 -94 -59 -202 -125 -241 -146 -38 -21 -101 -57 -140 -80 -38 -23
-91 -54 -117 -69 -90 -50 -124 -155 -75 -227 36 -54 67 -64 187 -61 88 2 114
-1 151 -17 43 -19 58 -20 330 -13 235 6 290 11 310 24 20 12 44 14 124 10 57
-3 103 -10 107 -16 16 -24 0 -597 -17 -614 -10 -10 -808 -11 -1010 -1 -121 6
-429 10 -685 10 -463 0 -465 0 -497 22 -17 12 -34 29 -36 39 -3 9 0 73 5 140
6 70 7 214 3 333 -4 116 -8 275 -8 354 l-2 144 75 30 c41 16 143 51 225 78 83
26 301 100 485 163 360 125 517 178 730 246 74 23 147 51 162 61 14 11 33 19
41 19 28 0 76 50 87 91 10 35 8 47 -10 84 -33 68 -68 80 -223 78 -70 -1 -185
-6 -255 -12 -104 -9 -357 -12 -632 -9 -25 0 -121 -4 -215 -10 -288 -19 -590
-23 -608 -9 -14 10 -18 51 -27 282 -5 149 -10 343 -10 433 l0 163 188 -6 c103
-3 230 -10 282 -15z"/>
<path d="M5155 9923 c-11 -3 -104 -38 -206 -78 -102 -41 -214 -79 -248 -84
-69 -11 -89 -21 -144 -74 -33 -31 -37 -39 -37 -87 0 -60 21 -103 59 -120 14
-7 100 -18 191 -26 91 -7 204 -19 252 -25 120 -16 173 -7 219 39 61 62 99 192
99 339 0 67 -2 73 -31 97 -25 21 -40 26 -82 25 -29 -1 -61 -3 -72 -6z"/>
<path d="M9192 9121 c-137 -48 -265 -254 -247 -395 9 -69 61 -192 100 -235 17
-20 39 -49 49 -64 30 -49 67 -63 194 -75 324 -31 414 -25 526 36 66 36 150
114 183 169 51 87 65 207 37 304 -19 66 -111 192 -157 216 -79 41 -174 55
-407 59 -202 4 -230 3 -278 -15z"/>
<path d="M10465 7178 c-175 -45 -219 -89 -278 -273 -31 -98 -32 -104 -32 -280
1 -205 12 -266 73 -375 49 -88 113 -154 181 -187 55 -28 59 -28 266 -30 116
-1 236 -4 268 -7 65 -6 293 10 349 25 57 15 97 56 137 138 l36 76 0 155 c-1
207 -20 471 -39 543 -19 71 -64 138 -110 166 -19 12 -71 31 -116 42 -79 20
-181 22 -430 9 -8 -1 -71 1 -140 4 -73 3 -142 0 -165 -6z"/>
<path d="M3320 6726 c-19 -8 -67 -15 -107 -15 -59 -1 -90 -8 -174 -41 -222
-86 -234 -128 -234 -800 0 -401 0 -405 23 -447 12 -23 39 -59 59 -79 37 -37
151 -96 208 -108 38 -8 285 -28 345 -29 90 0 416 13 446 18 101 17 189 165
205 345 16 179 22 506 10 607 -19 164 -52 315 -79 366 -47 88 -130 136 -290
168 -129 26 -364 34 -412 15z"/>
<path d="M6390 5349 c-41 -17 -100 -39 -130 -50 -43 -15 -70 -35 -127 -95 -80
-83 -93 -112 -93 -214 0 -82 30 -150 90 -203 52 -48 96 -67 154 -67 24 0 104
-7 178 -16 104 -12 180 -14 348 -9 353 11 409 35 459 195 20 61 23 88 18 154
-7 99 -37 190 -78 232 -17 18 -61 46 -97 62 l-67 31 -290 6 -290 5 -75 -31z"/>
<path d="M3998 3905 c-3 -3 -73 -13 -155 -21 -149 -15 -161 -18 -278 -81 -76
-40 -142 -133 -169 -238 -18 -70 -41 -226 -51 -340 -4 -44 -13 -123 -21 -175
-21 -134 -30 -424 -15 -478 15 -52 62 -108 110 -128 59 -25 205 -46 279 -41
37 3 128 11 202 17 100 8 150 8 192 0 118 -23 235 39 286 150 21 47 26 76 32
200 5 80 13 246 20 370 7 124 11 279 8 345 -3 110 -6 126 -35 188 -67 142
-183 227 -322 235 -42 2 -79 1 -83 -3z"/>
<path d="M9143 2965 c-43 -19 -102 -79 -161 -167 -89 -131 -96 -150 -100 -271
-2 -59 -1 -123 2 -143 10 -51 64 -104 148 -146 104 -53 178 -62 442 -55 l218
5 64 33 c73 36 146 109 174 172 10 23 24 90 31 149 10 92 9 118 -5 188 -29
147 -50 168 -206 213 -111 33 -547 48 -607 22z"/>
</g>
</svg>
