<?xml version="1.0" standalone="no"?>
<!DOCTYPE svg PUBLIC "-//W3C//DTD SVG 20010904//EN" "http://www.w3.org/TR/2001/REC-SVG-20010904/DTD/svg10.dtd">
<svg version="1.0" xmlns="http://www.w3.org/2000/svg" width="798.000000pt" height="342.000000pt"
    viewBox="0 0 798.000000 342.000000" preserveAspectRatio="xMidYMid meet">
    <defs>
        <linearGradient id="grad2" x1="0%" y1="0%" x2="0%" y2="100%">
            <stop offset="0%" style="stop-color:rgb(255,0,0);stop-opacity:1" />
            <stop offset="100%" style="stop-color:rgb(255,255,0);stop-opacity:1" />
        </linearGradient>
        <style type="text/css">
            #rect1 {
                fill: url(#grad2);
            }
        </style>
    </defs>
    <g transform="translate(0.000000,342.000000) scale(0.100000,-0.100000)" fill="white" stroke="none">
        <path d="M565 3000 l-40 -6 48 -22 c27 -12 46 -26 42 -32 -3 -5 14 -24 39 -42
28 -19 42 -35 35 -39 -8 -4 -5 -20 9 -52 17 -38 18 -46 6 -51 -8 -3 -14 -1
-14 -38 l-1 -33 -17 28 c-9 15 -23 27 -30 27 -7 0 -21 13 -30 30 -24 42 -132
79 -132 46 0 -12 -5 -12 -29 -3 -34 13 -56 4 -116 -46 -50 -41 -35 -52 65 -50
44 1 80 -2 80 -7 0 -4 25 -11 55 -15 34 -4 55 -11 55 -19 0 -7 11 -23 25 -36
32 -30 26 -36 -16 -14 -20 10 -34 13 -36 7 -2 -6 -23 -9 -46 -6 -52 5 -133
-19 -130 -38 1 -8 -12 -21 -30 -29 -27 -13 -34 -23 -44 -70 -6 -30 -11 -56 -9
-57 1 -2 26 17 55 42 56 48 62 50 77 35 6 -6 22 -2 44 13 20 13 54 24 78 25
24 1 47 3 50 3 4 1 16 0 27 -1 18 -2 18 -3 -3 -8 -13 -4 -24 -11 -24 -17 0 -5
-19 -20 -41 -33 -50 -28 -68 -51 -62 -76 2 -11 -5 -35 -16 -53 -15 -24 -19
-42 -14 -65 14 -70 13 -69 54 -25 20 23 43 56 50 72 6 17 22 35 34 40 13 6 24
22 28 40 3 17 11 29 18 27 7 -1 19 2 26 8 10 8 14 -126 19 -697 3 -390 9 -809
12 -932 l6 -223 41 6 c23 4 42 8 43 9 0 1 -3 117 -7 257 -5 140 -16 525 -24
855 -9 330 -19 616 -22 635 -6 33 -5 34 11 17 10 -9 16 -25 15 -34 -3 -37 1
-53 16 -53 10 0 15 -10 15 -30 0 -35 20 -81 31 -74 5 3 9 18 9 34 0 16 8 42
17 59 18 30 17 30 -11 60 -25 26 -27 31 -13 37 15 5 13 12 -14 46 -17 21 -29
42 -25 45 3 3 0 13 -7 21 -10 14 -9 15 8 8 11 -5 28 -9 38 -10 10 -1 31 -19
48 -39 16 -20 36 -34 43 -31 9 4 15 -8 20 -35 4 -25 12 -41 20 -41 9 0 17 -15
21 -37 6 -35 44 -93 61 -93 4 0 4 38 1 85 -4 53 -2 85 4 85 13 0 -14 51 -40
74 -12 11 -21 26 -21 33 0 8 -18 22 -40 30 -22 9 -40 20 -40 25 0 4 -22 8 -50
8 -53 0 -67 15 -25 26 14 3 25 13 25 21 0 9 6 12 18 9 10 -4 42 -8 69 -10 32
-2 63 -12 82 -25 17 -12 31 -19 31 -15 0 3 18 -13 39 -37 l39 -44 7 28 c4 15
4 39 -1 55 -4 15 -6 32 -6 38 1 6 -18 19 -43 28 -24 10 -43 23 -42 29 1 7 -9
11 -27 8 -16 -1 -32 3 -37 10 -6 10 -15 10 -45 1 -27 -8 -40 -8 -45 -1 -4 7
-17 5 -38 -6 -46 -23 -57 -14 -27 22 14 17 26 35 26 41 0 5 18 17 40 26 25 10
44 25 50 40 5 14 18 30 30 36 11 6 20 16 20 22 0 6 16 28 35 49 43 48 44 59 4
59 -37 0 -64 -13 -106 -52 -17 -17 -36 -28 -41 -24 -5 3 -21 -17 -36 -44 -15
-28 -31 -50 -35 -50 -4 0 -23 -35 -41 -77 -35 -79 -47 -85 -32 -15 5 22 6 44
1 49 -4 4 -4 26 1 48 12 53 12 78 0 70 -6 -4 -10 7 -10 25 0 40 -18 73 -35 66
-7 -2 -23 6 -36 20 -23 25 -40 27 -114 14z" />
        <path d="M1670 1905 l0 -795 160 0 160 0 2 328 3 327 34 0 35 0 62 -325 c35
-179 63 -326 63 -327 2 -7 341 -2 341 5 0 4 -40 191 -90 415 -49 225 -90 419
-90 431 0 13 40 179 90 369 49 190 90 350 90 356 0 8 -51 11 -160 11 -157 0
-160 0 -165 -22 -3 -13 -39 -164 -80 -337 -41 -173 -78 -318 -84 -324 -5 -5
-17 -7 -27 -5 -18 3 -19 21 -22 346 l-2 342 -160 0 -160 0 0 -795z" />
        <path d="M2630 1905 l0 -795 297 2 297 3 26 143 26 142 -163 0 -163 0 0 650 0
650 -160 0 -160 0 0 -795z" />
        <path d="M3635 2688 c-2 -7 -65 -355 -140 -773 -75 -418 -139 -770 -142 -782
l-5 -23 159 0 160 0 14 98 14 97 108 3 c124 3 113 12 131 -110 l11 -83 159 -3
158 -3 -4 23 c-2 13 -67 371 -144 795 l-139 773 -168 0 c-125 0 -169 -3 -172
-12z m211 -840 c19 -145 34 -271 34 -280 0 -16 -10 -18 -75 -18 -41 0 -75 3
-75 8 0 4 16 126 35 271 19 145 35 270 35 279 0 8 3 13 6 9 3 -3 21 -124 40
-269z" />
        <path d="M4342 1978 l3 -723 23 -46 c15 -31 35 -53 65 -70 41 -23 48 -24 299
-27 171 -2 271 1 299 8 53 15 104 64 118 115 7 27 11 266 11 753 l0 712 -160
0 -160 0 -2 -657 -3 -658 -73 -3 c-46 -2 -79 2 -88 9 -12 10 -14 115 -14 660
l0 649 -160 0 -161 0 3 -722z" />
        <path d="M5429 2690 c-45 -13 -79 -42 -102 -84 -21 -39 -22 -55 -25 -341 -4
-366 -1 -395 43 -444 l33 -36 157 -5 c123 -4 158 -9 165 -20 15 -23 13 -333
-2 -348 -8 -8 -65 -12 -190 -12 -136 0 -178 -3 -178 -12 0 -7 11 -71 25 -143
14 -71 25 -131 25 -133 0 -1 114 -2 253 0 297 4 314 8 357 94 25 49 25 51 28
364 3 363 -2 400 -57 437 -31 21 -45 23 -167 23 -73 0 -144 4 -158 10 l-26 10
0 168 c0 117 4 172 12 180 8 8 67 12 201 12 175 0 188 1 183 18 -2 9 -15 74
-27 145 l-23 127 -251 -1 c-137 0 -262 -4 -276 -9z" />
        <path d="M6160 1905 l0 -795 155 0 155 0 0 795 0 795 -155 0 -155 0 0 -795z" />
        <path d="M6727 2686 c-50 -18 -76 -42 -98 -91 -17 -36 -19 -71 -19 -373 0
-369 2 -385 62 -422 28 -17 50 -20 160 -20 70 0 138 -4 153 -10 l25 -10 -2
-177 -3 -178 -187 -3 c-104 -1 -188 -6 -188 -10 1 -4 13 -68 28 -142 l28 -135
233 -3 c250 -3 291 3 340 44 55 46 61 89 61 452 0 274 -2 329 -16 357 -25 54
-62 65 -216 65 -187 0 -178 -10 -178 186 0 88 4 164 10 175 10 18 23 19 200
19 149 0 190 3 190 13 0 7 -11 71 -25 142 -14 72 -25 131 -25 133 0 1 -111 2
-247 2 -183 -1 -258 -4 -286 -14z" />
        <path d="M1770 771 l0 -131 125 0 c120 0 127 1 150 25 14 13 25 33 25 45 0 21
-32 60 -50 60 -5 0 -1 9 10 20 26 26 25 62 -1 86 -18 16 -40 20 -140 22 l-119
4 0 -131z m195 66 c31 -23 8 -37 -61 -37 -55 0 -64 2 -64 18 0 10 3 22 7 25
12 12 99 7 118 -6z m29 -106 c4 -5 3 -16 0 -25 -5 -13 -22 -16 -80 -16 -72 0
-74 1 -74 25 0 24 2 25 74 25 41 0 77 -4 80 -9z" />
        <path d="M2420 770 l0 -130 135 0 135 0 0 25 c0 24 -1 24 -97 27 -92 3 -98 4
-101 25 -3 21 0 22 90 25 l93 3 3 28 3 27 -95 0 c-89 0 -96 1 -96 20 0 18 8
20 98 22 96 3 97 3 97 28 l0 25 -132 3 -133 3 0 -131z" />
        <path d="M3077 770 l-68 -130 41 0 c33 0 42 4 52 25 10 23 16 25 79 25 62 0
70 -2 85 -25 13 -19 25 -25 54 -25 l37 0 -66 128 -66 127 -40 3 -40 2 -68
-130z m132 13 l21 -43 -45 0 -45 0 22 45 c12 24 23 44 24 42 1 -1 11 -21 23
-44z" />
        <path d="M3754 886 c-50 -22 -74 -61 -74 -121 0 -44 5 -58 28 -83 45 -48 147
-66 235 -41 33 9 37 13 37 44 0 34 0 34 -27 19 -16 -7 -56 -14 -89 -14 -78 0
-114 24 -114 76 0 78 101 106 213 59 16 -7 18 -3 15 26 -2 26 -9 35 -28 40
-43 12 -164 9 -196 -5z" />
        <path d="M4340 771 l0 -131 35 0 35 0 0 55 0 56 88 -3 87 -3 3 -52 3 -53 35 0
35 0 -3 128 -3 127 -32 3 c-31 3 -32 3 -35 -45 l-3 -48 -87 -3 -87 -3 -3 48
c-3 46 -4 48 -35 51 l-33 3 0 -130z" />
        <path d="M5083 879 c-100 -49 -95 -182 10 -229 48 -22 133 -25 187 -7 28 9 36
18 38 41 3 26 1 28 -20 21 -13 -4 -55 -9 -95 -12 -67 -5 -74 -3 -97 20 -32 32
-33 68 -3 102 35 41 114 45 200 10 14 -6 17 -2 17 23 0 25 -6 32 -31 41 -54
19 -159 14 -206 -10z" />
        <path d="M5670 770 l0 -130 130 0 130 0 0 25 c0 24 -2 24 -92 27 l-93 3 -3
103 -3 102 -34 0 -35 0 0 -130z" />
        <path d="M6280 797 c0 -94 2 -105 23 -125 49 -46 150 -56 225 -22 53 24 62 47
62 161 l0 89 -35 0 -35 0 0 -83 c0 -110 -12 -127 -85 -127 -77 0 -85 11 -85
121 l0 89 -35 0 -35 0 0 -103z" />
        <path d="M6960 771 l0 -131 123 0 c147 0 167 9 167 71 0 32 -4 41 -25 51 -22
10 -23 12 -8 23 21 16 21 71 -1 93 -13 14 -40 18 -136 20 l-120 4 0 -131z
m195 66 c31 -23 8 -37 -61 -37 -62 0 -64 1 -64 25 0 24 3 25 53 25 29 0 61 -6
72 -13z m23 -119 c-3 -21 -9 -23 -75 -26 -72 -3 -73 -3 -73 23 0 25 1 25 76
25 72 0 75 -1 72 -22z" />
    </g>
</svg>
